<?xml version="1.0" encoding="UTF-8" standalone="no"?>
<svg version="1.1" id="svg246" width="223.96799" height="306.15466" viewBox="0 0 223.96799 306.15466" sodipodi:docname="LogotipoCblanco.ai" xmlns:inkscape="http://www.inkscape.org/namespaces/inkscape" xmlns:sodipodi="http://sodipodi.sourceforge.net/DTD/sodipodi-0.dtd" xmlns="http://www.w3.org/2000/svg" xmlns:svg="http://www.w3.org/2000/svg">
  <defs id="defs250">
    <clipPath clipPathUnits="userSpaceOnUse" id="clipPath270">
      <path d="M 0,301.323 H 990.138 V 0 H 0 Z" id="path268"/>
    </clipPath>
  </defs>
  <sodipodi:namedview id="namedview248" pagecolor="#ffffff" bordercolor="#666666" borderopacity="1.0" inkscape:showpageshadow="2" inkscape:pageopacity="0.0" inkscape:pagecheckerboard="0" inkscape:deskcolor="#d1d1d1" showgrid="false"/>
  <g id="g254" inkscape:groupmode="layer" inkscape:label="Page 1" transform="matrix(1.3333333,0,0,-1.3333333,-58.662932,347.64466)">
    <g id="g264">
      <g id="g266" clip-path="url(#clipPath270)">
        <g id="g272" transform="translate(73.0752,110.5615)">
          <path d="m 0,0 h -3.828 c -3.297,-5.519 -8.82,-10.938 -11.664,-13.234 -2.172,-2.32 -5.039,-3.614 -2.969,-7.256 3.563,-1.277 5.25,-1.014 6.414,-0.864 2.625,0.05 8.938,4.291 11.297,4.872 2.07,0.509 5.203,1.763 6,3 2.766,4.278 6.586,10.586 9.125,13.482 m 3.078,3.927 c 0.235,1.903 0.86,3.271 1.602,3.271 0.742,0 1.375,-1.388 1.601,-3.315 6.727,3.335 18.509,10.58 23.485,32.59 -1.086,-0.946 -2.508,-1.519 -4.056,-1.519 -2.67,0 -4.952,1.699 -5.819,4.08 -1.133,-1.909 -3.687,-5.954 -5,-6.321 -0.306,-0.007 -0.845,0.214 -1.056,0.415 -0.303,0.444 -0.295,1.392 -0.295,1.903 0,2.302 0.539,4.797 0.875,7.073 -0.563,-0.169 -1.165,-0.261 -1.782,-0.261 -3.422,0 -6.195,2.783 -6.195,6.215 0,3.432 2.773,6.214 6.195,6.214 3.422,0 6.196,-2.782 6.196,-6.214 0,-1.067 -0.266,-2.072 -0.744,-2.95 0.533,-0.217 1.47,-0.737 2.125,-1.071 1.033,1.988 3.111,3.345 5.5,3.345 2.336,0 4.369,-1.295 5.423,-3.208 0.196,1.457 0.36,2.966 0.5,4.53 0.538,2.615 1,4.812 1.297,5.461 0.047,1.23 -0.5,1.505 -2.172,1.505 0,0 -5.173,-1.315 -8,10e-4 -3.304,1.533 -3.867,7.354 -5.468,7.585 -1.594,0.232 -4.806,-4.109 -7.313,-7.12 C 22.648,55.318 19.477,53.592 19.477,53.592 17.977,53.244 6.68,43.593 4.922,40.831 2.766,37.993 7.805,37.335 9.047,33.977 12.461,23.288 1.82,11.012 -2.539,3.46 h 16.758 c 0.172,2.144 0.844,3.738 1.64,3.738 0.743,0 1.368,-1.368 1.594,-3.271 M 20.531,0 c -0.289,-1.5 -0.843,-2.516 -1.476,-2.516 -0.539,0 -1.024,0.729 -1.336,1.864 -0.211,-0.097 -0.414,-0.202 -0.625,-0.316 -0.305,-0.953 -0.742,-1.548 -1.235,-1.548 -0.203,0 -0.39,0.1 -0.57,0.287 -5.281,-4.444 -8.414,-13.145 -9.703,-13.919 -1.672,-1.003 -4.828,-1.858 -6.5,-2.333 -1.281,-0.366 -6.359,-3.201 -7.664,-3.833 -1.203,-0.581 -12.945,-2.421 -12.945,2.593 0,5.013 1.859,5.08 2.523,8.089 0.57,3.54 0.516,5.222 0.586,7.121 0.219,1.971 0.601,3.506 0.367,4.511 h -7.031 V -75.473 H 49.375 L 49.04,0 Z m 11.157,42.017 c -0.031,0.01 -0.422,0 -0.478,0 -0.351,0 -1.155,-0.575 -1.21,-0.935 l -0.29,-2.074 c -0.092,-0.624 -0.217,-1.234 -0.217,-1.867 0,-0.742 -0.078,-0.831 0.616,-1.073 0.937,0.393 2.891,3.908 2.891,4.357 0,1.031 -0.359,1.232 -1.312,1.592 M 2.789,37.088 C -9.07,26.256 -14.852,3.805 -14.594,3.519 -19,-14.297 -16.711,-15.219 -4.977,3.522 -0.516,11.376 11.242,26.564 7,33.465 5.516,35.876 5.18,35.908 2.789,37.088 m 91.984,48.658 v 33.738 H 71.829 v 5.319 h 22.944 v 25.369 h 5.681 v -25.369 h 21.25 v -5.319 h -21.25 V 85.746 h 38.444 V -79.444 H -29.078 v 165.19 z m 0,-67.82 v 63.59 H 53.219 V 4.182 h 81.438 V 81.516 H 100.454 V 17.926 Z M 134.571,-0.101 H 53.219 v -75.372 h 81.352 z M 35.75,41.168 c 0,-2.399 1.938,-4.346 4.335,-4.346 2.392,0 4.336,1.947 4.336,4.346 0,2.401 -1.944,4.347 -4.336,4.347 -2.397,0 -4.335,-1.946 -4.335,-4.347 m -13.078,6.89 c 0,-2.401 1.945,-4.348 4.336,-4.348 2.399,0 4.336,1.947 4.336,4.348 0,2.4 -1.937,4.347 -4.336,4.347 -2.391,0 -4.336,-1.947 -4.336,-4.347" style="fill:#ffffff;fill-opacity:1;fill-rule:nonzero;stroke:none" id="path274"/>
        </g>
        <g id="g276" transform="translate(92.249,108.0586)">
          <path d="M 0,0 C 0.953,0 1.727,2.173 1.727,4.854 1.727,7.533 0.953,9.706 0,9.706 -0.953,9.706 -1.727,7.533 -1.727,4.854 -1.727,2.173 -0.953,0 0,0" style="fill:#ffffff;fill-opacity:1;fill-rule:nonzero;stroke:none" id="path278"/>
        </g>
        <g id="g280" transform="translate(78.7295,101.7656)">
          <path d="M 0,0 C 0.953,0 1.727,2.172 1.727,4.853 1.727,7.531 0.953,9.704 0,9.704 -0.953,9.704 -1.727,7.531 -1.727,4.853 -1.727,2.172 -0.953,0 0,0" style="fill:#ffffff;fill-opacity:1;fill-rule:nonzero;stroke:none" id="path282"/>
        </g>
        <g id="g284" transform="translate(75.4561,101.7656)">
          <path d="M 0,0 C 0.955,0 1.729,2.172 1.729,4.853 1.729,7.531 0.955,9.704 0,9.704 -0.953,9.704 -1.727,7.531 -1.727,4.853 -1.727,2.172 -0.953,0 0,0" style="fill:#ffffff;fill-opacity:1;fill-rule:nonzero;stroke:none" id="path286"/>
        </g>
        <g id="g288" transform="translate(128.7026,83.9336)">
          <path d="m 0,0 c 0,-5.512 1.204,-9.436 3.611,-11.77 2.139,-2.106 5.559,-3.158 10.259,-3.158 4.7,0 8.138,1.052 10.316,3.158 2.369,2.334 3.554,6.258 3.554,11.77 V 26.871 H 17.08 V -2.698 c 0,-3.33 -1.071,-4.995 -3.21,-4.995 -2.14,0 -3.21,1.665 -3.21,4.995 V 26.871 H 0 Z" style="fill:#ffffff;fill-opacity:1;fill-rule:nonzero;stroke:none" id="path290"/>
        </g>
        <g id="g292" transform="translate(179.4517,77.9561)">
          <path d="m 0,0 v 2.583 c 0,8.65 -4.413,12.977 -13.24,12.977 -5.502,0 -9.313,-1.58 -11.434,-4.737 -2.12,-3.158 -3.181,-8.68 -3.181,-16.565 0,-7.962 0.936,-13.417 2.809,-16.364 2.063,-3.292 5.998,-4.938 11.806,-4.938 9.017,0 13.526,4.746 13.526,14.239 v 3.044 H -10.03 c 0,-3.217 -0.057,-5.188 -0.172,-5.914 -0.382,-2.757 -1.395,-4.135 -3.038,-4.135 -1.567,0 -2.579,0.956 -3.037,2.872 -0.383,1.684 -0.573,5.416 -0.573,11.196 0,5.779 0.19,9.511 0.573,11.196 0.458,1.914 1.47,2.871 3.037,2.871 1.07,0 1.824,-0.44 2.264,-1.321 0.439,-0.88 0.659,-2.45 0.659,-4.708 V 0 Z" style="fill:#ffffff;fill-opacity:1;fill-rule:nonzero;stroke:none" id="path294"/>
        </g>
        <g id="g296" transform="translate(185.752,49.7656)">
          <path d="M 0,0 2.923,17.398 H 3.038 L 5.961,0 Z m -2.35,-15.215 1.089,7.177 h 8.483 l 1.089,-7.177 H 19.659 L 9.686,25.781 H -3.725 l -9.973,-40.996 z" style="fill:#ffffff;fill-opacity:1;fill-rule:nonzero;stroke:none" id="path298"/>
        </g>
      </g>
    </g>
  </g>
</svg>